<svg xmlns="http://www.w3.org/2000/svg" width="24" height="24" viewBox="0 0 24 24" fill="none" stroke="currentColor" stroke-width="2" stroke-linecap="round" stroke-linejoin="round" class="lucide lucide-folder-tree h-5 w-5" data-fg-dqpt10="1.26:1.2249:/src/app/components/Sidebar.tsx:63:15:1804:33:e:item.icon" data-fgid-dqpt10=":rf:"><path d="M20 10a1 1 0 0 0 1-1V6a1 1 0 0 0-1-1h-2.5a1 1 0 0 1-.8-.4l-.9-1.2A1 1 0 0 0 15 3h-2a1 1 0 0 0-1 1v5a1 1 0 0 0 1 1Z"></path><path d="M20 21a1 1 0 0 0 1-1v-3a1 1 0 0 0-1-1h-2.9a1 1 0 0 1-.88-.55l-.42-.85a1 1 0 0 0-.92-.6H13a1 1 0 0 0-1 1v5a1 1 0 0 0 1 1Z"></path><path d="M3 5a2 2 0 0 0 2 2h3"></path><path d="M3 3v13a2 2 0 0 0 2 2h3"></path></svg>